<?xml version="1.0" encoding="utf-8"?>
<!-- Generator: Adobe Illustrator 26.0.1, SVG Export Plug-In . SVG Version: 6.00 Build 0)  -->
<svg version="1.1" id="PATTERN" xmlns="http://www.w3.org/2000/svg" xmlns:xlink="http://www.w3.org/1999/xlink" x="0px" y="0px"
	 viewBox="0 0 500 500" style="enable-background:new 0 0 500 500;" xml:space="preserve">
<style type="text/css">
	.st0{fill:none;}
	.st1{opacity:0.6;}
	.st2{fill:none;stroke:#FFFFFF;stroke-width:0.8013;stroke-miterlimit:10;}
	.st3{opacity:0.3;}
	.st4{opacity:0.3;fill:#272525;}
	.st5{opacity:0.3875;fill:#222020;}
	
		.st6{fill:none;stroke:#272525;stroke-width:1.5565;stroke-linecap:round;stroke-linejoin:round;stroke-miterlimit:10;stroke-dasharray:4.6695;}
	.st7{opacity:0.475;fill:#1D1C1C;}
	.st8{opacity:0.5625;fill:#181717;}
	.st9{opacity:0.65;fill:#131212;}
	.st10{opacity:0.7375;fill:#0F0E0E;}
	.st11{opacity:0.825;fill:#0A0909;}
	.st12{opacity:0.9125;fill:#050505;}
	.st13{fill:none;stroke:#FFFFFF;stroke-width:0.7211;stroke-miterlimit:10;}
	.st14{fill:none;stroke:#FFFFFF;stroke-width:0.7088;stroke-miterlimit:10;}
	.st15{fill:none;stroke:#FFFFFF;stroke-width:0.6965;stroke-miterlimit:10;}
	.st16{fill:none;stroke:#FFFFFF;stroke-width:0.6841;stroke-miterlimit:10;}
	.st17{fill:none;stroke:#FFFFFF;stroke-width:0.6718;stroke-miterlimit:10;}
	.st18{fill:none;stroke:#FFFFFF;stroke-width:0.6595;stroke-miterlimit:10;}
	.st19{fill:none;stroke:#FFFFFF;stroke-width:0.6472;stroke-miterlimit:10;}
	.st20{fill:none;stroke:#FFFFFF;stroke-width:0.6348;stroke-miterlimit:10;}
	.st21{fill:none;stroke:#FFFFFF;stroke-width:0.6225;stroke-miterlimit:10;}
	.st22{fill:none;stroke:#FFFFFF;stroke-width:0.6102;stroke-miterlimit:10;}
	
		.st23{fill:none;stroke:#FFFFFF;stroke-width:2.1619;stroke-linecap:round;stroke-linejoin:round;stroke-miterlimit:10;stroke-dasharray:6.4856;}
	.st24{fill:#FFFFFF;}
	.st25{fill:url(#SVGID_1_);}
	.st26{fill:url(#SVGID_00000152943395266574575490000011637433294554486170_);}
	.st27{fill:url(#SVGID_00000011752132112571904850000005552278179165155236_);}
	.st28{fill:url(#SVGID_00000038377890293027392400000018228545613237819822_);}
</style>
<pattern  width="491" height="518" patternUnits="userSpaceOnUse" id="New_Pattern" viewBox="170.22 -742.7 491 518" style="overflow:visible;">
	<g>
		<rect x="170.22" y="-742.7" class="st0" width="491" height="518"/>
		<g>
			<g class="st1">
				<g>
					<path class="st2" d="M928.81-135.53c-10.2-10.97-26.24-14.06-41.2-14.97c-15.43-0.94-30.96-0.19-46.34-1.77
						c-15.38-1.58-30.98-5.71-43.17-15.22c-9.02-7.04-15.67-16.61-23.7-24.77c-12.86-13.08-29.1-22.36-45.89-29.74
						c-11.13-4.89-22.82-9.06-34.96-9.7c-21.53-1.13-43.47,10.01-54.56,28.49c-11.09,18.48-10.39,43.6,2.39,60.96
						c11.28,15.34,29.93,23.59,42.53,37.86c19.34,21.92,22.17,55.28,42.92,75.87c11.48,11.39,27.89,17.63,44.03,16.73
						c8.98-0.5,17.73-3.08,26.68-4.04c36.56-3.91,74.21,19.19,108.94,7.12c23-7.99,37.83-31.56,39.72-55.29
						C947.92-85.51,944-119.2,928.81-135.53z"/>
				</g>
			</g>
		</g>
		<g>
			<g class="st3">
				<g>
					<path class="st4" d="M702.55-24.03c-5.28,3.25-10.81,6.03-16.43,8.65C650.38,0.46,582.56,8.81,554.65-14.15
						c-27.92-22.95-11.76-44.64-42.34-74.69c-30.58-30.05-28.01-80.5,6.21-116.95c34.23-36.46,58.87-11,79.59-17.67
						c20.73-6.67,47.58-25.33,74.56-2.35c6.33,5.97,11.1,15.04,13.62,23.01l0,0c0.14,0.53,0.3,1.05,0.47,1.56
						c0.57,1.75,1.31,3.45,2.33,5c4.22,6.43,12.23,8.96,19.31,11.99c11.97,5.11,23.01,13.08,30.01,24.05
						c7,10.97,9.5,25.17,4.86,37.33c-3.04,7.96-8.89,14.7-11.36,22.86c-3.77,12.47,0.9,26-1.05,38.88
						C728.45-45.25,716.23-32.45,702.55-24.03z"/>
					<path class="st5" d="M601.79-212.57c18.9-5.84,42.94-22.6,67.06-2.8c5.75,5.1,10.13,12.94,12.55,19.92c0,0,0,0,0,0
						c0.14,0.46,0.29,0.92,0.45,1.37c0.56,1.53,1.23,3.03,2.17,4.4c3.85,5.67,11.02,7.97,17.39,10.79
						c10.68,4.67,20.49,11.84,26.7,21.63c6.23,9.84,8.46,22.5,4.4,33.37c-2.67,7.12-7.8,13.18-9.99,20.48
						c-3.33,11.14,0.71,23.22-1.01,34.75c-2.12,14.18-12.97,25.44-24.71,33.37c-4.6,3.11-9.41,5.96-14.46,8.45
						c-12.37,6.1-29.73,10.43-47.24,12.13c-27.82,2.7-57.77,1.31-73.62-12.29c-24.3-20.85-10.53-39.8-37.12-66.49
						c-26.65-26.76-23.87-71.36,6.66-103.47C561.33-228.99,583.25-206.84,601.79-212.57z"/>
				</g>
			</g>
			<g class="st1">
				<g>
					<path class="st2" d="M437.81-135.53c-10.2-10.97-26.24-14.06-41.2-14.97c-15.43-0.94-30.96-0.19-46.34-1.77
						c-15.38-1.58-30.98-5.71-43.17-15.22c-9.02-7.04-15.67-16.61-23.7-24.77c-12.86-13.08-29.1-22.36-45.89-29.74
						c-11.13-4.89-22.82-9.06-34.96-9.7c-21.52-1.13-43.47,10.01-54.56,28.49c-11.09,18.48-10.39,43.6,2.38,60.96
						c11.28,15.34,29.93,23.59,42.53,37.86c19.34,21.92,22.17,55.28,42.92,75.87c11.48,11.39,27.89,17.63,44.03,16.73
						c8.98-0.5,17.73-3.08,26.68-4.04c36.56-3.91,74.21,19.19,108.94,7.12c23-7.99,37.83-31.56,39.72-55.29
						C456.92-85.51,453-119.2,437.81-135.53z"/>
				</g>
			</g>
		</g>
		<g>
			<g class="st3">
				<g>
					<path class="st4" d="M211.55-24.03c-5.28,3.25-10.81,6.03-16.43,8.65C159.38,0.46,91.56,8.81,63.65-14.15
						C35.72-37.09,51.89-58.79,21.31-88.84c-30.58-30.05-28.01-80.5,6.21-116.95c34.23-36.46,58.87-11,79.59-17.67
						c20.73-6.67,47.58-25.33,74.56-2.35c6.33,5.97,11.1,15.04,13.62,23.01l0,0c0.14,0.53,0.3,1.05,0.47,1.56
						c0.57,1.75,1.31,3.45,2.33,5c4.22,6.43,12.23,8.96,19.31,11.99c11.97,5.11,23.01,13.08,30.01,24.05
						c7,10.97,9.5,25.17,4.86,37.33c-3.04,7.96-8.89,14.7-11.36,22.86c-3.77,12.47,0.9,26-1.05,38.88
						C237.45-45.25,225.23-32.45,211.55-24.03z"/>
					<path class="st5" d="M110.79-212.57c18.9-5.84,42.94-22.6,67.06-2.8c5.75,5.1,10.13,12.94,12.55,19.92c0,0,0,0,0,0
						c0.14,0.46,0.29,0.92,0.45,1.37c0.56,1.53,1.23,3.03,2.17,4.4c3.85,5.67,11.02,7.97,17.39,10.79
						c10.68,4.67,20.49,11.84,26.7,21.63c6.23,9.84,8.46,22.5,4.4,33.37c-2.67,7.12-7.8,13.18-9.99,20.48
						c-3.33,11.14,0.71,23.22-1.01,34.75c-2.12,14.18-12.97,25.44-24.71,33.37c-4.6,3.11-9.41,5.96-14.46,8.45
						c-12.37,6.1-29.73,10.43-47.24,12.13C116.28-12.01,86.33-13.4,70.48-27c-24.3-20.85-10.53-39.8-37.12-66.49
						C6.72-120.24,9.5-164.85,40.03-196.96C70.33-228.99,92.25-206.84,110.79-212.57z"/>
				</g>
			</g>
		</g>
		<g>
			<g class="st3">
				<g>
					<path class="st4" d="M909.66-446.67c-1.62,5.98-3.75,11.8-6.06,17.55c-15.22,36-58.94,88.51-95,90.89
						c-36.06,2.38-39.13-24.5-81.99-25.47c-42.86-0.98-75.52-39.51-75.52-89.51c0-50.01,35.38-48.31,45.93-67.36
						c10.55-19.05,17.35-51.03,52.74-52.75c8.7,0.02,18.39,3.36,25.68,7.45h0.01c0.47,0.29,0.93,0.56,1.41,0.81
						c1.62,0.89,3.31,1.62,5.12,2.05c7.48,1.8,15.05-1.84,22.28-4.48c12.23-4.46,25.73-6.22,38.34-3
						c12.61,3.21,24.16,11.85,29.09,23.88c3.23,7.89,3.58,16.8,7.36,24.44c5.78,11.67,18.45,18.34,25.85,29.07
						C914.02-479.87,913.87-462.17,909.66-446.67z"/>
				</g>
			</g>
			<g class="st1">
				<g>
					<path class="st2" d="M928.81-653.53c-10.2-10.97-26.24-14.06-41.2-14.97c-15.43-0.94-30.96-0.19-46.34-1.77
						c-15.38-1.58-30.98-5.71-43.17-15.22c-9.02-7.04-15.67-16.61-23.7-24.77c-12.86-13.08-29.1-22.36-45.89-29.74
						c-11.13-4.89-22.82-9.06-34.96-9.7c-21.53-1.13-43.47,10.01-54.56,28.49c-11.09,18.48-10.39,43.6,2.39,60.96
						c11.28,15.34,29.93,23.59,42.53,37.86c19.34,21.92,22.17,55.28,42.92,75.87c11.48,11.39,27.89,17.63,44.03,16.73
						c8.98-0.5,17.73-3.08,26.68-4.04c36.56-3.91,74.21,19.19,108.94,7.12c23-7.99,37.83-31.56,39.72-55.29
						C947.92-603.51,944-637.2,928.81-653.53z"/>
					<path class="st2" d="M651.2-714.77c-9.99,17.61-8.31,41.09,3.31,57.61c9.89,14.05,26.58,21.57,37.73,34.56
						c17.11,19.95,19.79,49.82,38.1,68.83c5.33,5.54,11.92,9.96,19.18,12.68c7.27,2.72,15.1,3.78,22.81,3.22
						c8.22-0.6,16.21-2.96,24.39-3.94c9.02-1.08,18.1-0.41,27.2,0.96c24.62,3.71,49.33,12.55,72.62,4.66
						c21.18-7.16,35.15-28.34,37.47-49.85c2.12-19.6-0.96-50.23-14.76-65.73c-9.24-10.31-23.91-13.53-37.73-14.6
						c-4.81-0.37-9.64-0.54-14.47-0.65c-9.51-0.21-19.02-0.18-28.49-1.06c-5.84-0.54-11.72-1.47-17.41-2.97
						c-8.2-2.17-16.01-5.55-22.75-10.66c-8.44-6.4-14.75-15.13-22.22-22.68c-11.99-12.12-26.83-21.07-42.29-28.12
						c-7.17-3.28-14.61-6.19-22.31-7.85c-3.32-0.72-6.69-1.19-10.09-1.36C681.47-742.73,661.04-732.13,651.2-714.77z"/>
					<path class="st2" d="M663.4-708.34c-8.89,16.75-6.25,38.56,4.24,54.26c8.51,12.74,23.23,19.56,32.92,31.26
						c14.88,17.99,17.38,44.4,33.28,61.79c4.92,5.39,11.14,9.81,18.11,12.38c6.97,2.57,14.5,3.36,21.85,2.67
						c7.45-0.69,14.7-2.84,22.1-3.84c8.16-1.1,16.39-0.67,24.65,0.41c22.34,2.93,44.83,10.68,66.06,3.71
						c19.37-6.33,32.47-25.11,35.22-44.42c2.52-17.67,0.32-45.29-12.13-59.91c-8.24-9.68-21.58-13-34.26-14.22
						c-4.41-0.42-8.86-0.65-13.31-0.78c-8.76-0.26-17.54-0.17-26.26-0.89c-5.39-0.44-10.81-1.22-16.07-2.53
						c-7.58-1.9-14.81-4.92-21.08-9.51c-7.86-5.75-13.83-13.65-20.74-20.59c-11.11-11.16-24.57-19.78-38.7-26.51
						c-6.56-3.14-13.39-5.91-20.52-7.47c-3.07-0.67-6.19-1.11-9.33-1.26C690.92-734.63,672.01-724.57,663.4-708.34z"/>
				</g>
			</g>
			<g class="st3">
				<polyline class="st6" points="611.71,-414.37 611.71,-448.49 611.71,-482.6 611.71,-516.71 611.71,-548.75 				"/>
				<polyline class="st6" points="645.82,-414.37 645.82,-448.49 645.82,-482.6 645.82,-516.71 645.82,-548.75 				"/>
				<polyline class="st6" points="577.59,-516.71 611.71,-516.71 645.82,-516.71 679.93,-516.71 711.97,-516.71 				"/>
				<polyline class="st6" points="577.59,-482.6 611.71,-482.6 645.82,-482.6 679.93,-482.6 711.97,-482.6 				"/>
				<polyline class="st6" points="577.59,-448.49 611.71,-448.49 645.82,-448.49 679.93,-448.49 711.97,-448.49 				"/>
			</g>
		</g>
		<g>
			<g class="st3">
				<g>
					<path class="st4" d="M418.66-446.67c-1.62,5.98-3.75,11.8-6.06,17.55c-15.22,36-58.94,88.51-95,90.89
						c-36.06,2.38-39.13-24.5-81.99-25.47c-42.86-0.98-75.52-39.51-75.52-89.51c0-50.01,35.38-48.31,45.93-67.36
						c10.55-19.05,17.35-51.03,52.74-52.75c8.7,0.02,18.39,3.36,25.68,7.45h0.01c0.47,0.29,0.93,0.56,1.41,0.81
						c1.62,0.89,3.31,1.62,5.12,2.05c7.48,1.8,15.05-1.84,22.28-4.48c12.23-4.46,25.73-6.22,38.34-3
						c12.61,3.21,24.16,11.85,29.09,23.88c3.23,7.89,3.58,16.8,7.36,24.44c5.78,11.67,18.45,18.34,25.85,29.07
						C423.02-479.87,422.87-462.17,418.66-446.67z"/>
					<path class="st5" d="M286.62-557.39C286.62-557.39,286.62-557.39,286.62-557.39c0.42,0.25,0.84,0.49,1.27,0.71
						c1.45,0.76,2.96,1.42,4.56,1.8c6.68,1.58,13.43-1.59,19.87-3.87c10.93-3.85,22.93-5.3,34.12-2.37
						c11.2,2.94,21.44,10.65,25.89,21.35c2.91,7.01,3.29,14.92,6.68,21.72c5.18,10.38,16.38,16.39,23,25.94
						c8.14,11.76,8.07,27.39,4.75,41.15c-1.29,5.35-2.95,10.59-4.89,15.76c-8.14,21.62-28.72,49.64-51.13,66.44
						c-11.5,8.63-23.4,14.74-34.53,15.69c-32.28,2.74-35.69-20.12-74.16-21.5c-38.96-1.4-66.87-37-66.08-81.65
						c0.78-44.12,31.56-43.14,40.89-60.27c9.35-17.2,15.39-45.66,46.82-47.34C271.42-563.86,280.05-560.96,286.62-557.39z"/>
					<path class="st7" d="M288.8-548.9C288.8-548.9,288.8-548.9,288.8-548.9c0.37,0.21,0.74,0.42,1.12,0.61
						c1.28,0.66,2.6,1.22,4.01,1.54c5.89,1.36,11.81-1.34,17.46-3.26c9.63-3.24,20.12-4.38,29.9-1.74
						c9.8,2.66,18.73,9.45,22.69,18.82c2.58,6.13,3,13.04,6,19c4.57,9.09,14.31,14.43,20.15,22.81c7.16,10.29,7.17,23.87,4.74,35.87
						c-0.95,4.71-2.19,9.37-3.73,13.97c-6.45,19.45-25,44.67-45.38,59.28c-10.36,7.42-20.96,13.01-30.93,14.1
						c-28.5,3.09-32.26-15.75-66.33-17.54c-35.07-1.84-58.23-34.48-56.64-73.78c1.54-38.22,27.73-37.97,35.86-53.19
						c8.15-15.34,13.42-40.28,40.89-41.93C275.37-554.42,282.95-551.97,288.8-548.9z"/>
					<path class="st8" d="M290.98-540.42C290.98-540.42,290.98-540.42,290.98-540.42c0.32,0.18,0.64,0.35,0.97,0.51
						c1.1,0.55,2.24,1.01,3.46,1.29c5.09,1.14,10.19-1.1,15.05-2.66c8.32-2.66,17.32-3.46,25.67-1.1
						c8.39,2.38,16.01,8.25,19.49,16.29c2.26,5.25,2.71,11.16,5.32,16.28c3.96,7.79,12.25,12.48,17.3,19.68
						c6.18,8.82,6.28,20.36,4.73,30.59c-0.62,4.09-1.44,8.14-2.57,12.18c-4.82,17.27-21.28,39.7-39.64,52.12
						c-9.21,6.23-18.52,11.28-27.33,12.5c-24.71,3.42-28.82-11.4-58.5-13.57c-31.17-2.28-49.6-31.93-47.2-65.92
						c2.28-32.3,23.91-32.79,30.82-46.1c6.96-13.48,11.46-34.9,34.96-36.52C279.32-544.98,285.85-542.97,290.98-540.42z"/>
					<path class="st9" d="M293.16-531.93C293.16-531.93,293.16-531.93,293.16-531.93c0.27,0.14,0.54,0.28,0.81,0.41
						c0.93,0.44,1.89,0.81,2.9,1.03c4.29,0.92,8.57-0.85,12.64-2.05c7.02-2.06,14.52-2.54,21.45-0.47
						c6.98,2.11,13.3,7.05,16.29,13.76c1.94,4.37,2.42,9.28,4.63,13.56c3.35,6.5,10.18,10.52,14.45,16.55
						c5.2,7.35,5.41,16.87,4.72,25.32c-0.28,3.47-0.69,6.92-1.41,10.38c-3.15,15.13-17.55,34.74-33.9,44.96
						c-8.05,5.03-16.07,9.54-23.73,10.91c-20.91,3.73-25.4-7.07-50.67-9.61c-27.29-2.74-41-29.35-37.76-58.05
						c2.97-26.35,20.11-27.61,25.79-39.01c5.79-11.61,9.5-29.52,29.03-31.12C283.28-535.53,288.74-533.97,293.16-531.93z"/>
					<path class="st10" d="M295.34-523.44C295.34-523.44,295.34-523.44,295.34-523.44c0.22,0.11,0.44,0.21,0.66,0.31
						c0.76,0.33,1.53,0.61,2.35,0.78c3.5,0.71,6.95-0.6,10.23-1.44c5.72-1.46,11.72-1.63,17.23,0.17
						c5.57,1.82,10.58,5.85,13.09,11.23c1.61,3.49,2.13,7.4,3.95,10.84c2.75,5.21,8.11,8.56,11.6,13.43
						c4.22,5.88,4.56,13.41,4.71,20.04c0.06,2.87,0.08,5.71-0.25,8.59c-1.46,13.01-13.8,29.79-28.15,37.8
						c-6.89,3.84-13.62,7.8-20.13,9.32c-17.12,4.01-21.97-2.77-42.83-5.64c-23.4-3.22-32.44-26.71-28.32-50.19
						c3.58-20.38,16.28-22.43,20.76-31.92c4.59-9.75,7.54-24.15,23.1-25.71C287.23-526.09,291.64-524.98,295.34-523.44z"/>
					<path class="st11" d="M297.52-514.96C297.52-514.96,297.52-514.96,297.52-514.96c0.17,0.07,0.34,0.14,0.51,0.2
						c0.58,0.22,1.18,0.41,1.8,0.53c2.7,0.49,5.33-0.35,7.83-0.83c4.43-0.85,8.92-0.71,13.01,0.8c4.17,1.54,7.87,4.65,9.88,8.7
						c1.29,2.61,1.84,5.52,3.27,8.12c2.14,3.91,6.04,6.61,8.75,10.3c3.24,4.41,3.8,9.98,4.69,14.76c0.43,2.29,0.86,4.5,0.92,6.8
						c0.29,10.93-10.03,24.86-22.41,30.63c-5.72,2.67-11.18,6.03-16.53,7.73c-13.32,4.23-18.55,1.49-35-1.67
						c-19.52-3.75-24-24-18.88-42.32c4.02-14.38,12.46-17.26,15.72-24.84c3.4-7.89,5.58-18.77,17.17-20.3
						C291.18-516.65,294.54-515.98,297.52-514.96z"/>
					<path class="st12" d="M299.7-506.47C299.7-506.47,299.7-506.47,299.7-506.47c0.12,0.04,0.24,0.07,0.36,0.1
						c0.41,0.11,0.82,0.21,1.25,0.27c1.9,0.27,3.72-0.1,5.42-0.23c3.14-0.24,6.12,0.21,8.78,1.43c2.76,1.27,5.16,3.45,6.68,6.17
						c0.97,1.73,1.55,3.64,2.59,5.4c1.53,2.62,3.97,4.65,5.91,7.17c2.25,2.94,3.21,6.56,4.68,9.48c0.87,1.71,1.66,3.3,2.08,5.01
						c2.16,8.85-6.24,19.99-16.67,23.47c-4.53,1.51-8.74,4.23-12.93,6.14c-9.55,4.36-15.11,5.67-27.17,2.29
						c-15.62-4.37-15.9-21.27-9.44-34.45c4.12-8.4,8.63-12.09,10.69-17.75c2.2-6.04,3.62-13.39,11.24-14.89
						C295.14-507.2,297.44-506.98,299.7-506.47z"/>
					<path d="M301.88-497.99c-12.07,0-5.83,13.71-14.77,20.77c-8.93,7.06-11.63,21.4,0,26.59s18.69-9.56,28.67-10.8
						c9.97-1.25,17.45-12.88,7.69-19.53S314.57-497.99,301.88-497.99z"/>
				</g>
			</g>
			<g class="st3">
				<g>
					<path class="st4" d="M702.55-542.03c-5.28,3.25-10.81,6.03-16.43,8.65c-35.74,15.83-103.55,24.18-131.47,1.23
						c-27.92-22.95-11.76-44.64-42.34-74.69c-30.58-30.05-28.01-80.5,6.21-116.95c34.23-36.46,58.87-11,79.59-17.67
						c20.73-6.67,47.58-25.33,74.56-2.35c6.33,5.97,11.1,15.04,13.62,23.01l0,0c0.14,0.53,0.3,1.05,0.47,1.56
						c0.57,1.75,1.31,3.45,2.33,5c4.22,6.43,12.23,8.96,19.31,11.99c11.97,5.11,23.01,13.08,30.01,24.05
						c7,10.97,9.5,25.17,4.86,37.33c-3.04,7.96-8.89,14.7-11.36,22.86c-3.77,12.47,0.9,26-1.05,38.88
						C728.45-563.25,716.23-550.45,702.55-542.03z"/>
					<path class="st5" d="M601.79-730.57c18.9-5.84,42.94-22.6,67.06-2.8c5.75,5.1,10.13,12.94,12.55,19.92c0,0,0,0,0,0
						c0.14,0.46,0.29,0.92,0.45,1.37c0.56,1.53,1.23,3.03,2.17,4.4c3.85,5.67,11.02,7.97,17.39,10.79
						c10.68,4.67,20.49,11.84,26.7,21.63c6.23,9.84,8.46,22.5,4.4,33.37c-2.67,7.12-7.8,13.18-9.99,20.48
						c-3.33,11.14,0.71,23.22-1.01,34.75c-2.12,14.18-12.97,25.44-24.71,33.37c-4.6,3.11-9.41,5.96-14.46,8.45
						c-12.37,6.1-29.73,10.43-47.24,12.13c-27.82,2.7-57.77,1.31-73.62-12.29c-24.3-20.85-10.53-39.8-37.12-66.49
						c-26.65-26.76-23.87-71.36,6.66-103.47C561.33-746.99,583.25-724.84,601.79-730.57z"/>
					<path class="st7" d="M605.47-719.68c17.06-5.01,38.31-19.88,59.55-3.25c5.17,4.23,9.16,10.85,11.48,16.83c0,0,0,0,0,0
						c0.13,0.4,0.28,0.79,0.43,1.17c0.53,1.32,1.16,2.6,2.01,3.79c3.5,4.89,9.81,7.01,15.48,9.59c9.38,4.27,17.96,10.59,23.39,19.2
						c5.47,8.71,7.42,19.82,3.93,29.42c-2.29,6.28-6.71,11.66-8.61,18.1c-2.89,9.81,0.53,20.44-0.97,30.61
						c-1.84,12.47-11.32,22.22-21.11,29.64c-3.93,2.98-8.03,5.82-12.5,8.25c-11.07,5.96-27.22,9.8-43.1,10.68
						c-25.01,1.38-52.62,0.88-67.14-12.21c-20.73-18.68-9.31-34.95-31.89-58.29c-22.71-23.47-19.65-62.16,7.1-89.99
						C569.98-733.65,589.12-714.88,605.47-719.68z"/>
					<path class="st8" d="M609.15-708.79c15.24-4.17,33.67-17.15,52.05-3.69c4.59,3.35,8.19,8.75,10.42,13.74c0,0,0,0,0,0
						c0.13,0.33,0.27,0.66,0.42,0.98c0.5,1.1,1.09,2.18,1.85,3.19c3.13,4.12,8.59,6.03,13.56,8.39c8.09,3.84,15.44,9.35,20.08,16.78
						c4.71,7.57,6.38,17.15,3.47,25.46c-1.91,5.44-5.62,10.13-7.23,15.72c-2.46,8.48,0.34,17.66-0.93,26.48
						c-1.56,10.76-9.67,19.06-17.52,25.91c-3.28,2.86-6.65,5.71-10.53,8.04c-9.75,5.87-24.7,9.17-38.96,9.22
						c-22.19,0.08-47.46,0.48-60.67-12.13c-17.21-16.43-8.09-30.12-26.67-50.09c-18.78-20.18-15.46-52.99,7.54-76.51
						C578.59-720.36,594.99-704.91,609.15-708.79z"/>
					<path class="st9" d="M612.83-697.9c13.42-3.33,29.04-14.43,44.54-4.14c4.01,2.48,7.22,6.66,9.35,10.66c0,0,0,0,0,0
						c0.12,0.26,0.26,0.53,0.4,0.79c0.47,0.89,1.01,1.76,1.7,2.59c2.77,3.35,7.38,5.05,11.65,7.19c6.8,3.41,12.92,8.11,16.78,14.35
						c3.95,6.44,5.34,14.47,3,21.51c-1.53,4.61-4.53,8.61-5.86,13.34c-2.02,7.15,0.16,14.87-0.89,22.34
						c-1.28,9.05-8.01,15.97-13.92,22.17c-2.64,2.78-5.28,5.59-8.57,7.84c-8.43,5.77-22.18,8.56-34.82,7.77
						c-19.36-1.21-42.3,0.12-54.19-12.05c-13.75-14.08-6.86-25.29-21.45-41.88c-14.85-16.9-11.28-43.82,7.98-63.03
						C587.19-707.06,600.87-694.93,612.83-697.9z"/>
					<path class="st10" d="M616.51-687.01c11.6-2.48,24.4-11.7,37.04-4.59c3.43,1.61,6.25,4.56,8.28,7.57c0,0,0,0,0,0
						c0.12,0.2,0.25,0.4,0.38,0.59c0.44,0.67,0.94,1.34,1.54,1.98c2.4,2.58,6.17,4.07,9.73,5.99c5.51,2.98,10.41,6.86,13.47,11.93
						c3.2,5.3,4.3,11.79,2.54,17.55c-1.15,3.77-3.44,7.09-4.48,10.96c-1.58,5.82-0.03,12.09-0.85,18.2
						c-1,7.35-6.32,12.99-10.32,18.44c-2.01,2.73-3.9,5.48-6.6,7.64c-7.12,5.69-19.65,7.96-30.68,6.31
						c-16.52-2.47-37.16-0.19-47.72-11.98c-10.4-11.61-5.64-20.48-16.22-33.68c-10.93-13.63-7.11-34.65,8.42-49.55
						C595.79-693.77,606.76-684.93,616.51-687.01z"/>
					<path class="st11" d="M620.19-676.12c9.8-1.59,19.76-8.98,29.54-5.03c2.85,0.74,5.28,2.47,7.21,4.48c0,0,0,0,0,0
						c0.12,0.13,0.23,0.27,0.36,0.4c0.41,0.45,0.87,0.91,1.38,1.38c2.03,1.82,4.96,3.08,7.82,4.79c4.23,2.54,7.88,5.61,10.16,9.5
						c2.44,4.16,3.26,9.12,2.07,13.6c-0.78,2.93-2.35,5.56-3.1,8.58c-1.14,4.49-0.21,9.31-0.81,14.07
						c-0.72,5.64-3.74,10.63-6.72,14.7c-0.84,2.95-2.51,5.37-4.63,7.44c-5.79,5.63-17.12,7.39-26.54,4.86
						c-13.68-3.68-32.07-0.41-41.24-11.9c-7.17-8.99-4.41-15.69-11-25.48c-7.01-10.4-2.95-25.49,8.86-36.06
						C604.37-680.49,612.65-674.89,620.19-676.12z"/>
					<path class="st12" d="M623.87-665.23c8.02-0.64,15.13-6.25,22.03-5.48c2.27-0.13,4.31,0.37,6.15,1.39c0,0,0,0,0,0
						c0.11,0.07,0.22,0.14,0.34,0.21c0.38,0.24,0.79,0.49,1.23,0.78c1.64,1.06,3.75,2.08,5.9,3.59c2.95,2.08,5.36,4.37,6.85,7.08
						c1.67,3.03,2.21,6.44,1.61,9.64c-0.4,2.09-1.26,4.04-1.73,6.2c-0.7,3.16-0.4,6.53-0.77,9.93c-0.44,3.93-2.45,7.48-3.12,10.97
						c-0.55,2.85-1.12,5.28-2.67,7.23c-4.44,5.6-14.61,6.87-22.41,3.4c-10.86-4.83-27.19-0.45-34.77-11.82
						c-4.14-6.2-3.13-11-5.78-17.28c-3.06-7.26,1.17-16.34,9.31-22.58C612.92-667.24,618.57-664.8,623.87-665.23z"/>
					<path d="M652.54-659.37c-8.8-8.26-13.64,6-24.98,5.04c-11.35-0.97-23.13,7.64-18.2,19.38c4.93,11.75,20.17,5.83,28.29,11.75
						c8.12,5.92,21.54,2.55,18.97-8.97C654.05-643.71,661.79-650.69,652.54-659.37z"/>
				</g>
			</g>
			<g class="st1">
				<g>
					<path class="st13" d="M572.95-245.94c6.89-7.61,11.73-17.68,10.82-27.91c-1.46-16.39-16.86-29.2-17.58-45.64
						c-0.27-6.25,1.66-12.38,3.97-18.19c10.51-26.36,29.91-52.75,22.69-80.2c-3.13-11.9-11.08-22-20.11-30.36
						c-9.19-8.51-19.87-15.66-31.82-19.42c-35.24-11.07-75.38,11.63-90.75,45.22c-7.07,15.46-9.88,32.81-18.64,47.39
						c-11.05,18.4-30.11,30.15-46.76,43.69c-5.19,4.22-10.32,8.84-13.21,14.87c-2.94,6.13-3.29,13.15-3.24,19.94
						c0.09,13.28,1.74,27.27,9.56,38c10.34,14.19,28.77,19.39,45.8,23.67c28.14,7.08,62.07,21.88,91.12,22.05
						C534.58-212.71,560.35-232.4,572.95-245.94z"/>
					<path class="st14" d="M454.28-413.04c-3.12,6.52-5.54,13.35-7.93,20.23c-2.79,8.02-5.58,16.03-9.89,23.35
						c-4.14,7.02-9.45,13.07-15.38,18.6c-8.54,7.98-18.36,14.91-27.51,22.29c-4.85,3.91-9.69,8.14-12.5,13.65
						c-2.87,5.6-3.42,12.02-3.52,18.33c-0.01,0.36-0.01,0.73-0.01,1.1c-0.08,12,1.79,24.6,8.96,34.22
						c9.55,12.83,26.29,17.6,41.83,21.47c5.85,1.45,11.98,3.25,18.25,5.17c21.31,6.49,44.41,14.3,64.91,14.47
						c18.77,0.22,42.82-16.67,54.97-29.61c6.08-6.47,10.36-15.08,10.23-23.9c-0.01-0.6-0.04-1.19-0.09-1.79
						c-1.28-15.13-15.45-26.95-16.42-42.04c-0.37-5.74,1.22-11.38,3.24-16.75c8.73-23.19,25.45-46.38,20.93-70.41
						c-0.19-1-0.41-2.01-0.68-3.01c-2.86-10.88-10.1-20.13-18.32-27.81c-8.3-7.72-17.93-14.24-28.72-17.7
						c-18.15-5.84-37.76-1.83-53.91,8.35C470.55-437.17,460.47-425.95,454.28-413.04z"/>
					<path class="st15" d="M458.38-403.64c-2.99,5.9-5.45,12.03-7.78,18.29c-2.72,7.31-5.32,14.69-9.22,21.47
						c-3.74,6.51-8.5,12.17-13.85,17.35c-7.72,7.48-16.69,13.98-25.17,20.74c-4.51,3.59-9.05,7.44-11.8,12.42
						c-2.81,5.08-3.55,10.9-3.79,16.72c-0.01,0.34-0.03,0.67-0.04,1.01c-0.33,11.08,1.63,22.79,8.37,31.63
						c8.76,11.47,23.81,15.82,37.86,19.26c5.3,1.3,10.84,2.88,16.51,4.56c19.28,5.69,40.13,12.39,58.7,12.66
						c17.77,0.26,39.99-13.85,51.79-26.1c5.64-5.85,9.61-13.74,9.53-21.83c-0.01-0.55-0.03-1.09-0.07-1.64
						c-1.11-13.86-14.04-24.69-15.27-38.44c-0.46-5.22,0.79-10.38,2.51-15.3c7.37-21.07,22.53-42.13,18.43-63.92
						c-0.17-0.91-0.38-1.82-0.61-2.73c-2.59-9.86-9.12-18.26-16.53-25.25c-7.41-6.94-16-12.81-25.62-15.99
						c-16.19-5.36-33.72-2.01-48.24,6.94C473.15-425.05,464.15-415.04,458.38-403.64z"/>
					<path class="st16" d="M462.49-394.24c-2.85,5.28-5.36,10.7-7.63,16.36c-2.64,6.6-5.05,13.35-8.55,19.6
						c-3.35,5.99-7.55,11.27-12.32,16.1c-6.89,6.99-15.03,13.05-22.82,19.19c-4.18,3.28-8.42,6.73-11.09,11.2
						c-2.75,4.56-3.68,9.78-4.06,15.1c-0.02,0.31-0.04,0.62-0.06,0.93c-0.58,10.16,1.46,20.99,7.78,29.03
						c7.96,10.12,21.33,14.03,33.89,17.05c4.75,1.14,9.7,2.51,14.77,3.95c17.25,4.9,35.85,10.52,52.49,10.85
						c16.77,0.34,37.16-11.04,48.61-22.58c5.2-5.24,8.86-12.4,8.83-19.76c0-0.5-0.02-0.99-0.06-1.49
						c-0.93-12.6-12.63-22.43-14.11-34.84c-0.56-4.71,0.36-9.38,1.78-13.86c6.02-18.94,19.6-37.88,15.92-57.43
						c-0.15-0.81-0.34-1.63-0.55-2.45c-2.32-8.84-8.12-16.4-14.74-22.69c-6.49-6.17-14.07-11.38-22.52-14.28
						c-14.24-4.88-29.68-2.2-42.58,5.52C475.75-412.93,467.82-404.12,462.49-394.24z"/>
					<path class="st17" d="M466.59-384.84c-2.72,4.66-5.28,9.37-7.48,14.42c-2.57,5.89-4.79,12-7.88,17.73
						c-2.96,5.47-6.6,10.37-10.8,14.85c-6.07,6.49-13.36,12.12-20.48,17.63c-3.84,2.96-7.78,6.04-10.38,9.97
						c-2.67,4.04-3.82,8.66-4.34,13.49c-0.03,0.28-0.06,0.56-0.08,0.84c-0.83,9.24,1.29,19.19,7.2,26.43
						c7.15,8.77,18.84,12.25,29.93,14.84c4.2,0.98,8.57,2.14,13.03,3.35c15.22,4.1,31.57,8.65,46.28,9.04
						c15.77,0.42,34.31-8.23,45.44-19.07c4.76-4.64,8.12-11.06,8.14-17.69c0-0.45-0.01-0.9-0.04-1.34
						c-0.75-11.34-11.21-20.17-12.96-31.24c-0.66-4.2-0.07-8.38,1.05-12.42c4.67-16.8,16.68-33.63,13.42-50.95
						c-0.14-0.72-0.3-1.44-0.49-2.16c-2.05-7.82-7.14-14.54-12.95-20.14c-5.6-5.39-12.13-9.96-19.42-12.56
						c-12.28-4.4-25.64-2.38-36.91,4.11C478.35-400.81,471.48-393.21,466.59-384.84z"/>
					<path class="st18" d="M470.7-375.44c-2.6,4.05-5.19,8.04-7.33,12.48c-2.5,5.18-4.53,10.66-7.21,15.86
						c-2.57,4.95-5.65,9.47-9.27,13.59c-5.24,6-11.69,11.19-18.14,16.08c-3.5,2.65-7.14,5.34-9.68,8.75
						c-2.61,3.51-3.95,7.53-4.61,11.88c-0.04,0.25-0.07,0.5-0.11,0.76c-1.08,8.31,1.11,17.39,6.61,23.84
						c6.34,7.43,16.36,10.46,25.96,12.63c3.64,0.82,7.43,1.77,11.28,2.74c13.19,3.3,27.29,6.8,40.07,7.23
						c14.77,0.5,31.46-5.44,42.26-15.56c4.31-4.04,7.37-9.73,7.44-15.63c0-0.4,0-0.8-0.03-1.19c-0.58-10.08-9.8-17.91-11.8-27.63
						c-0.75-3.68-0.5-7.37,0.32-10.97c3.34-14.65,13.75-29.38,10.92-44.46c-0.12-0.63-0.26-1.25-0.42-1.88
						c-1.77-6.8-6.15-12.67-11.17-17.58c-4.7-4.6-10.2-8.53-16.33-10.85c-10.33-3.92-21.6-2.57-31.24,2.69
						C480.95-388.69,475.11-382.31,470.7-375.44z"/>
					<path class="st19" d="M474.8-366.04c-2.5,3.43-5.11,6.71-7.18,10.54c-2.43,4.47-4.26,9.32-6.54,13.98
						c-2.18,4.43-4.69,8.57-7.74,12.34c-4.42,5.5-10.02,10.26-15.8,14.53c-3.17,2.33-6.51,4.64-8.97,7.53
						c-2.55,2.99-4.08,6.41-4.88,10.27c-0.05,0.22-0.09,0.45-0.13,0.67c-1.34,7.39,0.92,15.6,6.02,21.24
						c5.51,6.09,13.88,8.68,21.99,10.43c3.09,0.66,6.29,1.4,9.54,2.14c11.17,2.5,23.01,4.95,33.86,5.43
						c13.77,0.6,28.59-2.65,39.09-12.05c3.85-3.45,6.62-8.39,6.74-13.56c0.01-0.35,0-0.7-0.01-1.04
						c-0.4-8.81-8.39-15.65-10.65-24.03c-0.85-3.17-0.92-6.36-0.41-9.53c2.03-12.49,10.83-25.13,8.41-37.97
						c-0.1-0.53-0.22-1.07-0.36-1.6c-1.5-5.78-5.17-10.8-9.38-15.02c-3.8-3.82-8.27-7.11-13.23-9.13
						c-8.38-3.44-17.56-2.75-25.58,1.28C483.54-376.56,478.71-371.41,474.8-366.04z"/>
					<path class="st20" d="M478.9-356.65c-2.41,2.8-5.02,5.38-7.04,8.6c-2.36,3.76-4,7.98-5.87,12.11
						c-1.78,3.91-3.74,7.67-6.22,11.09c-3.6,5-8.36,9.33-13.46,12.98c-2.83,2.02-5.88,3.93-8.27,6.3c-2.49,2.47-4.21,5.29-5.16,8.66
						c-0.05,0.19-0.11,0.39-0.15,0.59c-1.59,6.47,0.72,13.82,5.43,18.65c4.66,4.77,11.4,6.89,18.02,8.22
						c2.54,0.51,5.16,1.03,7.8,1.53c9.14,1.7,18.73,3.12,27.65,3.62c12.78,0.71,25.7,0.1,35.91-8.54c3.39-2.87,5.87-7.05,6.05-11.49
						c0.01-0.3,0.01-0.6,0-0.9c-0.23-7.55-6.97-13.39-9.5-20.43c-0.95-2.66-1.33-5.35-1.14-8.09c0.75-10.32,7.9-20.88,5.91-31.48
						c-0.08-0.44-0.18-0.88-0.29-1.32c-1.23-4.76-4.19-8.93-7.59-12.47c-2.91-3.03-6.33-5.68-10.13-7.42
						c-6.42-2.96-13.52-2.94-19.91-0.14C486.14-364.44,482.26-360.54,478.9-356.65z"/>
					<path class="st21" d="M483.01-347.25c-2.37,2.14-4.93,4.05-6.89,6.67c-2.29,3.06-3.73,6.63-5.2,10.24
						c-1.39,3.4-2.79,6.77-4.69,9.84c-2.77,4.51-6.69,8.4-11.12,11.43c-2.49,1.7-5.25,3.23-7.56,5.08
						c-2.43,1.94-4.35,4.17-5.43,7.05c-0.06,0.16-0.12,0.33-0.18,0.5c-1.84,5.55,0.5,12.06,4.84,16.05
						c3.79,3.48,8.92,5.1,14.05,6.01c1.99,0.35,4.02,0.66,6.06,0.92c7.11,0.91,14.45,1.31,21.43,1.81
						c11.77,0.85,22.77,2.81,32.73-5.03c2.92-2.29,5.12-5.71,5.35-9.42c0.02-0.25,0.02-0.5,0.02-0.75
						c-0.05-6.29-5.56-11.13-8.34-16.83c-1.04-2.15-1.73-4.34-1.87-6.64c-0.47-8.15,4.98-16.64,3.41-24.99
						c-0.07-0.35-0.14-0.69-0.23-1.03c-0.96-3.73-3.22-7.05-5.8-9.91c-2.02-2.24-4.4-4.25-7.03-5.71
						c-4.47-2.48-9.48-3.13-14.24-1.55C488.74-352.32,485.75-349.72,483.01-347.25z"/>
					<path class="st22" d="M514.58-280.53c2.44-1.74,4.37-4.37,4.65-7.35c0.68-7.24-7.89-11.99-9.75-19.02
						c-1.59-6.01,2.05-12.39,0.9-18.5c-0.57-3.02-2.26-5.7-4.18-8.1c-3.11-3.9-7.55-7.5-12.51-6.96c-2.37,0.26-4.52,1.45-6.6,2.61
						c-2.4,1.35-4.85,2.72-6.74,4.73c-4.29,4.54-4.96,11.33-7.7,16.95c-1.95,4.01-5.02,7.47-8.77,9.88
						c-4.58,2.94-10.52,4.75-12.76,9.7c-2.09,4.63,0.23,10.36,4.26,13.45c4.03,3.09,9.32,4.01,14.4,4.12
						c5.08,0.11,10.17-0.49,15.22,0C495.79-277.97,504.82-273.56,514.58-280.53z"/>
				</g>
			</g>
			<g class="st1">
				<g>
					<path class="st2" d="M437.81-653.53c-10.2-10.97-26.24-14.06-41.2-14.97c-15.43-0.94-30.96-0.19-46.34-1.77
						c-15.38-1.58-30.98-5.71-43.17-15.22c-9.02-7.04-15.67-16.61-23.7-24.77c-12.86-13.08-29.1-22.36-45.89-29.74
						c-11.13-4.89-22.82-9.06-34.96-9.7c-21.52-1.13-43.47,10.01-54.56,28.49c-11.09,18.48-10.39,43.6,2.38,60.96
						c11.28,15.34,29.93,23.59,42.53,37.86c19.34,21.92,22.17,55.28,42.92,75.87c11.48,11.39,27.89,17.63,44.03,16.73
						c8.98-0.5,17.73-3.08,26.68-4.04c36.56-3.91,74.21,19.19,108.94,7.12c23-7.99,37.83-31.56,39.72-55.29
						C456.92-603.51,453-637.2,437.81-653.53z"/>
					<path class="st2" d="M160.2-714.77c-9.99,17.61-8.31,41.09,3.31,57.61c9.89,14.05,26.58,21.57,37.73,34.56
						c17.11,19.95,19.79,49.82,38.1,68.83c5.33,5.54,11.92,9.96,19.18,12.68c7.27,2.72,15.1,3.78,22.81,3.22
						c8.22-0.6,16.21-2.96,24.39-3.94c9.02-1.08,18.1-0.41,27.2,0.96c24.62,3.71,49.33,12.55,72.62,4.66
						c21.18-7.16,35.15-28.34,37.47-49.85c2.12-19.6-0.96-50.23-14.76-65.73c-9.24-10.31-23.91-13.53-37.73-14.6
						c-4.81-0.37-9.64-0.54-14.47-0.65c-9.51-0.21-19.02-0.18-28.49-1.06c-5.84-0.54-11.72-1.47-17.41-2.97
						c-8.2-2.17-16.01-5.55-22.75-10.66c-8.44-6.4-14.75-15.13-22.22-22.68c-11.99-12.12-26.83-21.07-42.29-28.12
						c-7.17-3.28-14.61-6.19-22.31-7.85c-3.32-0.72-6.69-1.19-10.09-1.36C190.47-742.73,170.04-732.13,160.2-714.77z"/>
					<path class="st2" d="M172.4-708.34c-8.89,16.75-6.25,38.56,4.24,54.26c8.51,12.74,23.23,19.56,32.92,31.26
						c14.88,17.99,17.38,44.4,33.28,61.79c4.92,5.39,11.14,9.81,18.11,12.38c6.97,2.57,14.5,3.36,21.85,2.67
						c7.45-0.69,14.7-2.84,22.1-3.84c8.16-1.1,16.39-0.67,24.65,0.41c22.34,2.93,44.83,10.68,66.06,3.71
						c19.37-6.33,32.47-25.11,35.22-44.42c2.52-17.67,0.32-45.29-12.13-59.91c-8.24-9.68-21.58-13-34.26-14.22
						c-4.41-0.42-8.86-0.65-13.31-0.78c-8.76-0.26-17.54-0.17-26.26-0.89c-5.39-0.44-10.81-1.22-16.07-2.53
						c-7.58-1.9-14.81-4.92-21.08-9.51c-7.86-5.75-13.83-13.65-20.74-20.59c-11.11-11.16-24.57-19.78-38.7-26.51
						c-6.56-3.14-13.39-5.91-20.52-7.47c-3.07-0.67-6.19-1.11-9.33-1.26C199.92-734.63,181.01-724.57,172.4-708.34z"/>
					<path class="st2" d="M184.61-701.91c-7.78,15.9-4.17,36.01,5.17,50.9c7.16,11.41,19.88,17.54,28.12,27.96
						c12.65,16.02,14.93,39.05,28.45,54.75c4.52,5.25,10.36,9.67,17.03,12.09c6.68,2.42,13.89,2.94,20.88,2.13
						c6.68-0.77,13.19-2.73,19.82-3.74c7.31-1.12,14.68-0.94,22.1-0.14c20.05,2.16,40.33,8.81,59.5,2.77
						c17.56-5.5,29.8-21.9,32.97-38.98c2.92-15.75,1.58-40.32-9.49-54.09c-7.26-9.03-19.26-12.47-30.79-13.85
						c-4.02-0.48-8.08-0.75-12.16-0.91c-8.02-0.3-16.05-0.16-24.04-0.71c-4.94-0.34-9.9-0.96-14.72-2.09
						c-6.95-1.62-13.61-4.29-19.42-8.37c-7.29-5.11-12.91-12.17-19.26-18.5c-10.24-10.2-22.3-18.48-35.1-24.89
						c-5.96-3-12.18-5.62-18.73-7.09c-2.82-0.63-5.68-1.03-8.57-1.16C209.37-726.53,191.99-716.99,184.61-701.91z"/>
					<path class="st2" d="M196.81-695.47c-6.66,15.05-2.1,33.44,6.1,47.55c5.83,10.05,16.53,15.53,23.31,24.67
						c10.42,14.06,12.43,33.76,23.63,47.71c4.11,5.13,9.58,9.53,15.96,11.8c6.38,2.27,13.29,2.53,19.91,1.58
						c5.91-0.84,11.67-2.61,17.53-3.65c6.46-1.15,12.97-1.2,19.54-0.69c17.77,1.38,35.84,6.95,52.94,1.82
						c15.74-4.66,27.14-18.68,30.72-33.54c3.33-13.83,2.84-35.34-6.86-48.27c-6.28-8.38-16.93-11.95-27.33-13.48
						c-3.62-0.53-7.29-0.86-11-1.03c-7.27-0.34-14.56-0.15-21.82-0.54c-4.48-0.24-8.99-0.71-13.38-1.65
						c-6.32-1.35-12.4-3.65-17.75-7.22c-6.71-4.47-11.99-10.69-17.78-16.4c-9.37-9.24-20.03-17.19-31.5-23.27
						c-5.35-2.86-10.96-5.33-16.94-6.71c-2.57-0.59-5.18-0.95-7.81-1.05C218.82-718.44,202.98-709.41,196.81-695.47z"/>
					<path class="st2" d="M209.02-689.04c-5.52,14.22,0,30.83,7.02,44.2c4.55,8.65,13.18,13.51,18.51,21.37
						c8.19,12.09,9.86,28.54,18.81,40.67c3.7,5.02,8.8,9.39,14.88,11.5c6.09,2.12,12.68,2.13,18.95,1.04
						c5.14-0.89,10.16-2.49,15.24-3.55c5.61-1.17,11.25-1.46,16.99-1.24c15.48,0.61,31.34,5.08,46.38,0.88
						c13.93-3.83,24.49-15.47,28.46-28.11c3.75-11.91,4.09-30.36-4.23-42.44c-5.31-7.72-14.6-11.42-23.86-13.11
						c-3.22-0.59-6.51-0.96-9.84-1.16c-6.53-0.39-13.07-0.14-19.6-0.36c-4.03-0.13-8.08-0.46-12.04-1.2
						c-5.7-1.07-11.2-3.02-16.08-6.07c-6.13-3.83-11.06-9.2-16.3-14.31c-8.49-8.28-17.77-15.89-27.9-21.66
						c-4.74-2.72-9.75-5.05-15.15-6.33c-2.32-0.55-4.67-0.88-7.05-0.95C228.28-710.34,213.98-701.81,209.02-689.04z"/>
					<path class="st2" d="M221.23-682.61c-4.37,13.4,2.13,28.17,7.95,40.84c3.32,7.22,9.82,11.5,13.71,18.07
						c5.95,10.12,7.2,23.41,13.99,33.63c3.28,4.93,8.01,9.25,13.81,11.21c5.8,1.96,12.07,1.74,17.98,0.49
						c4.37-0.93,8.64-2.37,12.95-3.45c4.76-1.19,9.54-1.73,14.43-1.79c13.2-0.17,26.83,3.18,39.83-0.07
						c12.11-3.03,21.85-12.26,26.21-22.67c4.18-9.99,5.33-25.37-1.6-36.62c-4.34-7.06-12.27-10.89-20.39-12.73
						c-2.83-0.64-5.73-1.06-8.68-1.28c-5.78-0.43-11.59-0.13-17.38-0.18c-3.58-0.03-7.17-0.21-10.69-0.76
						c-5.07-0.8-10-2.39-14.42-4.93c-5.55-3.18-10.14-7.72-14.82-12.22c-7.62-7.32-15.5-14.6-24.3-20.04
						c-4.14-2.58-8.54-4.76-13.36-5.95c-2.07-0.51-4.17-0.8-6.29-0.85C237.73-702.24,225.01-694.21,221.23-682.61z"/>
					<path class="st2" d="M233.43-676.18c-3.18,12.59,4.35,25.45,8.88,37.49c2.16,5.74,6.47,9.48,8.9,14.77
						c3.72,8.16,4.43,18.36,9.17,26.59c2.81,4.88,7.23,9.11,12.73,10.92c5.5,1.81,11.47,1.39,17.01-0.05
						c3.6-0.94,7.13-2.26,10.67-3.35c3.91-1.21,7.83-1.99,11.88-2.34c10.91-0.94,22.34,1.31,33.27-1.01
						c10.29-2.19,19.24-9.04,23.96-17.24c4.64-8.07,6.56-20.37,1.04-30.8c-3.38-6.39-9.94-10.36-16.92-12.36
						c-2.43-0.7-4.95-1.17-7.52-1.41c-5.04-0.47-10.1-0.12-15.15-0.01c-3.13,0.07-6.26,0.04-9.35-0.32
						c-4.45-0.52-8.79-1.76-12.75-3.78c-4.97-2.54-9.22-6.24-13.34-10.13c-6.75-6.36-13.23-13.31-20.7-18.42
						c-3.53-2.44-7.32-4.47-11.57-5.57c-1.82-0.47-3.67-0.72-5.52-0.75C247.18-694.15,236.07-686.59,233.43-676.18z"/>
					<path class="st2" d="M245.64-669.74c-1.94,11.78,6.8,22.66,9.81,34.13c1.1,4.22,3.12,7.47,4.1,11.47
						c1.49,6.19,1.51,13.4,4.35,19.55c2.25,4.88,6.45,8.96,11.66,10.62c5.21,1.66,10.88,1.08,16.04-0.6
						c2.85-0.92,5.62-2.14,8.38-3.26c3.06-1.24,6.12-2.26,9.32-2.89c8.63-1.71,17.84-0.55,26.71-1.96
						c8.48-1.35,16.67-5.8,21.71-11.8c5.14-6.13,7.76-15.36,3.67-24.98c-2.43-5.72-7.61-9.83-13.46-11.99
						c-2.04-0.75-4.17-1.27-6.36-1.54c-4.29-0.52-8.61-0.11-12.93,0.17c-2.67,0.17-5.35,0.29-8.01,0.12
						c-3.82-0.25-7.59-1.12-11.08-2.63c-4.39-1.9-8.3-4.76-11.86-8.04c-5.87-5.41-10.97-12.01-17.1-16.81
						c-2.92-2.3-6.11-4.19-9.78-5.19c-1.56-0.43-3.16-0.64-4.76-0.65C256.63-686.05,247.16-678.97,245.64-669.74z"/>
					<path class="st2" d="M351.83-637.69c-2.03-6.79-8.18-12.17-15.19-13.27c-5.74-0.9-11.56,0.86-17.38,0.91
						c-7.21,0.06-14.41-2.64-19.79-7.43c-7.42-6.6-11.97-17.2-21.49-20c-9.05-2.66-19.59,4.77-20.13,14.18
						c-0.63,10.97,9.96,19.82,10.73,30.78c0.49,6.94-3.04,13.98-1.19,20.69c1.37,4.96,5.67,8.82,10.59,10.33
						c4.92,1.51,10.34,0.85,15.08-1.14c4.45-1.87,8.37-4.84,12.86-6.6c6.34-2.49,13.35-2.4,20.15-2.91
						C339.83-613.2,356.94-620.59,351.83-637.69z"/>
				</g>
			</g>
			<g>
				<circle class="st23" cx="194.83" cy="-369.77" r="11.95"/>
				<circle class="st23" cx="487.51" cy="-509.93" r="11.95"/>
				<path class="st24" d="M317.31-395.26c0,2.31-1.87,4.19-4.19,4.19c-2.31,0-4.19-1.87-4.19-4.19c0-2.31,1.87-4.19,4.19-4.19
					C315.44-399.45,317.31-397.58,317.31-395.26z"/>
				<path class="st24" d="M368.33-655.08c0,2.31-1.87,4.19-4.19,4.19c-2.31,0-4.19-1.87-4.19-4.19s1.87-4.19,4.19-4.19
					C366.45-659.27,368.33-657.39,368.33-655.08z"/>
				<path class="st24" d="M552.67-541.65c0,1.16-0.94,2.09-2.09,2.09c-1.16,0-2.09-0.94-2.09-2.09s0.94-2.09,2.09-2.09
					C551.73-543.74,552.67-542.81,552.67-541.65z"/>
				<path class="st24" d="M352.75-726.45c0,1.16-0.94,2.09-2.09,2.09c-1.16,0-2.09-0.94-2.09-2.09s0.94-2.09,2.09-2.09
					C351.82-728.55,352.75-727.61,352.75-726.45z"/>
				<path class="st24" d="M245.97-446.22c0,1.16-0.94,2.09-2.09,2.09c-1.16,0-2.09-0.94-2.09-2.09c0-1.16,0.94-2.09,2.09-2.09
					C245.03-448.31,245.97-447.37,245.97-446.22z"/>
			</g>
			<g class="st3">
				<polyline class="st6" points="477.29,-592.08 477.29,-626.19 477.29,-660.3 477.29,-694.41 477.29,-726.45 				"/>
				<polyline class="st6" points="511.41,-592.08 511.41,-626.19 511.41,-660.3 511.41,-694.41 511.41,-726.45 				"/>
				<polyline class="st6" points="545.52,-592.08 545.52,-626.19 545.52,-660.3 545.52,-694.41 545.52,-726.45 				"/>
				<polyline class="st6" points="443.17,-694.41 477.29,-694.41 511.41,-694.41 545.52,-694.41 577.56,-694.41 				"/>
				<polyline class="st6" points="443.17,-660.3 477.29,-660.3 511.41,-660.3 545.52,-660.3 577.56,-660.3 				"/>
				<polyline class="st6" points="443.17,-626.19 477.29,-626.19 511.41,-626.19 545.52,-626.19 577.56,-626.19 				"/>
			</g>
			<g class="st3">
				<polyline class="st6" points="120.71,-414.37 120.71,-448.49 120.71,-482.6 120.71,-516.71 120.71,-548.75 				"/>
				<polyline class="st6" points="154.82,-414.37 154.82,-448.49 154.82,-482.6 154.82,-516.71 154.82,-548.75 				"/>
				<polyline class="st6" points="188.93,-414.37 188.93,-448.49 188.93,-482.6 188.93,-516.71 188.93,-548.75 				"/>
				<polyline class="st6" points="86.59,-516.71 120.71,-516.71 154.82,-516.71 188.93,-516.71 220.97,-516.71 				"/>
				<polyline class="st6" points="86.59,-482.6 120.71,-482.6 154.82,-482.6 188.93,-482.6 220.97,-482.6 				"/>
				<polyline class="st6" points="86.59,-448.49 120.71,-448.49 154.82,-448.49 188.93,-448.49 220.97,-448.49 				"/>
			</g>
		</g>
		<g>
			<g class="st3">
				<g>
					<path class="st4" d="M211.55-542.03c-5.28,3.25-10.81,6.03-16.43,8.65c-35.74,15.83-103.55,24.18-131.47,1.23
						c-27.92-22.95-11.76-44.64-42.34-74.69c-30.58-30.05-28.01-80.5,6.21-116.95c34.23-36.46,58.87-11,79.59-17.67
						c20.73-6.67,47.58-25.33,74.56-2.35c6.33,5.97,11.1,15.04,13.62,23.01l0,0c0.14,0.53,0.3,1.05,0.47,1.56
						c0.57,1.75,1.31,3.45,2.33,5c4.22,6.43,12.23,8.96,19.31,11.99c11.97,5.11,23.01,13.08,30.01,24.05
						c7,10.97,9.5,25.17,4.86,37.33c-3.04,7.96-8.89,14.7-11.36,22.86c-3.77,12.47,0.9,26-1.05,38.88
						C237.45-563.25,225.23-550.45,211.55-542.03z"/>
					<path class="st5" d="M110.79-730.57c18.9-5.84,42.94-22.6,67.06-2.8c5.75,5.1,10.13,12.94,12.55,19.92c0,0,0,0,0,0
						c0.14,0.46,0.29,0.92,0.45,1.37c0.56,1.53,1.23,3.03,2.17,4.4c3.85,5.67,11.02,7.97,17.39,10.79
						c10.68,4.67,20.49,11.84,26.7,21.63c6.23,9.84,8.46,22.5,4.4,33.37c-2.67,7.12-7.8,13.18-9.99,20.48
						c-3.33,11.14,0.71,23.22-1.01,34.75c-2.12,14.18-12.97,25.44-24.71,33.37c-4.6,3.11-9.41,5.96-14.46,8.45
						c-12.37,6.1-29.73,10.43-47.24,12.13c-27.82,2.7-57.77,1.31-73.62-12.29c-24.3-20.85-10.53-39.8-37.12-66.49
						C6.72-638.24,9.5-682.85,40.03-714.96C70.33-746.99,92.25-724.84,110.79-730.57z"/>
					<path class="st7" d="M114.47-719.68c17.06-5.01,38.31-19.88,59.55-3.25c5.17,4.23,9.16,10.85,11.48,16.83c0,0,0,0,0,0
						c0.13,0.4,0.28,0.79,0.43,1.17c0.53,1.32,1.16,2.6,2.01,3.79c3.5,4.89,9.81,7.01,15.48,9.59c9.38,4.27,17.96,10.59,23.39,19.2
						c5.47,8.71,7.42,19.82,3.93,29.42c-2.29,6.28-6.71,11.66-8.61,18.1c-2.89,9.81,0.53,20.44-0.97,30.61
						c-1.84,12.47-11.32,22.22-21.11,29.64c-3.93,2.98-8.03,5.82-12.5,8.25c-11.07,5.96-27.22,9.8-43.1,10.68
						c-25.01,1.38-52.62,0.88-67.14-12.21c-20.73-18.68-9.31-34.95-31.89-58.29c-22.71-23.47-19.65-62.16,7.1-89.99
						C78.98-733.65,98.12-714.88,114.47-719.68z"/>
					<path class="st8" d="M118.15-708.79c15.24-4.17,33.67-17.15,52.05-3.69c4.59,3.35,8.19,8.75,10.42,13.74c0,0,0,0,0,0
						c0.13,0.33,0.27,0.66,0.42,0.98c0.5,1.1,1.09,2.18,1.85,3.19c3.13,4.12,8.59,6.03,13.56,8.39c8.09,3.84,15.44,9.35,20.08,16.78
						c4.71,7.57,6.38,17.15,3.47,25.46c-1.91,5.44-5.62,10.13-7.23,15.72c-2.46,8.48,0.34,17.66-0.93,26.48
						c-1.56,10.76-9.67,19.06-17.52,25.91c-3.28,2.86-6.65,5.71-10.53,8.04c-9.75,5.87-24.7,9.17-38.96,9.22
						c-22.19,0.08-47.46,0.48-60.67-12.13c-17.21-16.43-8.09-30.12-26.67-50.09c-18.78-20.18-15.46-52.99,7.54-76.51
						C87.59-720.36,103.99-704.91,118.15-708.79z"/>
					<path class="st9" d="M121.83-697.9c13.42-3.33,29.04-14.43,44.54-4.14c4.01,2.48,7.22,6.66,9.35,10.66c0,0,0,0,0,0
						c0.12,0.26,0.26,0.53,0.4,0.79c0.47,0.89,1.01,1.76,1.7,2.59c2.77,3.35,7.38,5.05,11.65,7.19c6.8,3.41,12.92,8.11,16.78,14.35
						c3.95,6.44,5.34,14.47,3,21.51c-1.53,4.61-4.53,8.61-5.86,13.34c-2.02,7.15,0.16,14.87-0.89,22.34
						c-1.28,9.05-8.01,15.97-13.92,22.17c-2.64,2.78-5.28,5.59-8.57,7.84c-8.43,5.77-22.18,8.56-34.82,7.77
						c-19.36-1.21-42.3,0.12-54.19-12.05c-13.75-14.08-6.86-25.29-21.45-41.88c-14.85-16.9-11.28-43.82,7.98-63.03
						C96.19-707.06,109.87-694.93,121.83-697.9z"/>
					<path class="st10" d="M125.51-687.01c11.6-2.48,24.4-11.7,37.04-4.59c3.43,1.61,6.25,4.56,8.28,7.57c0,0,0,0,0,0
						c0.12,0.2,0.25,0.4,0.38,0.59c0.44,0.67,0.94,1.34,1.54,1.98c2.4,2.58,6.17,4.07,9.73,5.99c5.52,2.98,10.41,6.86,13.47,11.93
						c3.2,5.3,4.3,11.79,2.54,17.55c-1.15,3.77-3.44,7.09-4.48,10.96c-1.58,5.82-0.03,12.09-0.85,18.2
						c-1,7.35-6.32,12.99-10.32,18.44c-2.01,2.73-3.9,5.48-6.6,7.64c-7.12,5.69-19.65,7.96-30.68,6.31
						c-16.52-2.47-37.16-0.19-47.72-11.98c-10.4-11.61-5.64-20.48-16.22-33.68c-10.93-13.63-7.11-34.65,8.42-49.55
						C104.79-693.77,115.76-684.93,125.51-687.01z"/>
					<path class="st11" d="M129.19-676.12c9.8-1.59,19.76-8.98,29.54-5.03c2.85,0.74,5.28,2.47,7.21,4.48c0,0,0,0,0,0
						c0.12,0.13,0.23,0.27,0.36,0.4c0.41,0.45,0.87,0.91,1.38,1.38c2.03,1.82,4.96,3.08,7.82,4.79c4.23,2.54,7.88,5.61,10.16,9.5
						c2.44,4.16,3.26,9.12,2.07,13.6c-0.78,2.93-2.35,5.56-3.1,8.58c-1.14,4.49-0.21,9.31-0.81,14.07
						c-0.72,5.64-3.74,10.63-6.72,14.7c-0.84,2.95-2.51,5.37-4.63,7.44c-5.79,5.63-17.12,7.39-26.54,4.86
						c-13.68-3.68-32.07-0.41-41.24-11.9c-7.17-8.99-4.41-15.69-11-25.48c-7.01-10.4-2.95-25.49,8.86-36.06
						C113.37-680.49,121.65-674.89,129.19-676.12z"/>
					<path class="st12" d="M132.87-665.23c8.02-0.64,15.13-6.25,22.03-5.48c2.27-0.13,4.31,0.37,6.15,1.39c0,0,0,0,0,0
						c0.11,0.07,0.22,0.14,0.34,0.21c0.38,0.24,0.79,0.49,1.23,0.78c1.64,1.06,3.75,2.08,5.9,3.59c2.95,2.08,5.36,4.37,6.85,7.08
						c1.67,3.03,2.21,6.44,1.61,9.64c-0.4,2.09-1.26,4.04-1.73,6.2c-0.7,3.16-0.4,6.53-0.77,9.93c-0.44,3.93-2.45,7.48-3.12,10.97
						c-0.55,2.85-1.12,5.28-2.67,7.23c-4.44,5.6-14.61,6.87-22.41,3.4c-10.86-4.83-27.19-0.45-34.77-11.82
						c-4.14-6.2-3.13-11-5.78-17.28c-3.06-7.26,1.17-16.34,9.31-22.58C121.92-667.24,127.57-664.8,132.87-665.23z"/>
				</g>
			</g>
		</g>
		<g>
			<g class="st1">
				<g>
					<path class="st13" d="M572.95-763.94c6.89-7.61,11.73-17.68,10.82-27.91c-1.46-16.39-16.86-29.2-17.58-45.64
						c-0.27-6.25,1.66-12.38,3.97-18.19c10.51-26.36,29.91-52.75,22.69-80.2c-3.13-11.9-11.08-22-20.11-30.36
						c-9.19-8.51-19.87-15.66-31.82-19.42c-35.24-11.07-75.38,11.63-90.75,45.22c-7.07,15.46-9.88,32.81-18.64,47.39
						c-11.05,18.4-30.11,30.15-46.76,43.69c-5.19,4.22-10.32,8.84-13.21,14.87c-2.94,6.13-3.29,13.15-3.24,19.94
						c0.09,13.28,1.74,27.27,9.56,38c10.34,14.19,28.77,19.39,45.8,23.67c28.14,7.08,62.07,21.88,91.12,22.05
						C534.58-730.71,560.35-750.4,572.95-763.94z"/>
					<path class="st14" d="M454.28-931.04c-3.12,6.52-5.54,13.35-7.93,20.23c-2.79,8.02-5.58,16.03-9.89,23.35
						c-4.14,7.02-9.45,13.07-15.38,18.6c-8.54,7.98-18.36,14.91-27.51,22.29c-4.85,3.91-9.69,8.14-12.5,13.65
						c-2.87,5.6-3.42,12.02-3.52,18.33c-0.01,0.36-0.01,0.73-0.01,1.1c-0.08,12,1.79,24.6,8.96,34.22
						c9.55,12.83,26.29,17.6,41.83,21.47c5.85,1.45,11.98,3.25,18.25,5.17c21.31,6.49,44.41,14.3,64.91,14.47
						c18.77,0.22,42.82-16.67,54.97-29.61c6.08-6.47,10.36-15.08,10.23-23.9c-0.01-0.6-0.04-1.19-0.09-1.79
						c-1.28-15.13-15.45-26.95-16.42-42.04c-0.37-5.74,1.22-11.38,3.24-16.75c8.73-23.19,25.45-46.38,20.93-70.41
						c-0.19-1-0.41-2.01-0.68-3.01c-2.86-10.88-10.1-20.13-18.32-27.81c-8.3-7.72-17.93-14.24-28.72-17.7
						c-18.15-5.84-37.76-1.83-53.91,8.35C470.55-955.17,460.47-943.95,454.28-931.04z"/>
				</g>
			</g>
		</g>
	</g>
</pattern>
<g>
	<linearGradient id="SVGID_1_" gradientUnits="userSpaceOnUse" x1="629.3141" y1="691.8081" x2="846.7881" y2="-107.174">
		<stop  offset="0" style="stop-color:#654DAE"/>
		<stop  offset="1.385225e-07" style="stop-color:#7ABFC4"/>
		<stop  offset="1" style="stop-color:#7ABFC4"/>
	</linearGradient>
	<polygon class="st25" points="1499.14,500 1499.14,0 0,0 0,500 	"/>
</g>
<pattern  id="SVGID_00000129907774914284513970000007881019109726516102_" xlink:href="#New_Pattern" patternTransform="matrix(1 0 0 1.012 -125.154 -228.6523)">
</pattern>
<rect x="499.57" y="1.13" style="fill:url(#SVGID_00000129907774914284513970000007881019109726516102_);" width="500" height="506"/>
<pattern  id="SVGID_00000049205679010704900050000012712377539320605315_" xlink:href="#New_Pattern" patternTransform="matrix(1 0 0 1 -133.7234 -230.8055)">
</pattern>
<rect y="-0.87" style="fill:url(#SVGID_00000049205679010704900050000012712377539320605315_);" width="500" height="500"/>
<pattern  id="SVGID_00000039836611565638559470000016472384252873674430_" xlink:href="#New_Pattern" patternTransform="matrix(1 0 0 1.0223 374.4153 -225.6527)">
</pattern>
<rect x="999.14" y="4" style="fill:url(#SVGID_00000039836611565638559470000016472384252873674430_);" width="500" height="511.13"/>
</svg>
